<svg width="203" height="76" viewBox="0 0 203 76" fill="none" xmlns="http://www.w3.org/2000/svg">
<path d="M38.8384 14.3184C39.2955 14.3033 39.7609 14.2916 40.2365 14.2849C39.7055 14.3217 39.235 14.3267 38.8384 14.3184Z" fill="white"/>
<path d="M63.4908 28.5899C63.7124 29.6928 63.3596 30.7089 63.0069 31.4168C60.1352 37.9559 59.4983 41.1944 59.5354 42.9384C59.5403 43.2094 59.5773 44.1904 59.4109 45.5108C59.1808 47.3183 58.6952 48.7511 58.3273 49.6649C58.1071 49.824 57.514 50.2105 56.662 50.2389C56.4957 50.244 56.3377 50.2356 56.1898 50.2172C55.2624 50.0983 54.3281 50.0983 53.4007 50.2172C53.2528 50.2356 53.0948 50.244 52.9285 50.2389C52.0765 50.2105 51.4817 49.824 51.2634 49.6649C50.8953 48.7511 50.4097 47.3183 50.1796 45.5108C50.0131 44.1904 50.0502 43.2094 50.0551 42.9384C50.0905 41.1944 49.4552 37.9559 46.5836 31.4168C46.2308 30.7089 45.878 29.6928 46.0999 28.5899C46.4156 27.0117 47.6422 26.5564 48.1396 25.1053C48.38 24.4058 48.4706 23.4167 47.9649 22.0324C47.6709 21.2292 48.0052 20.3304 48.7613 19.9287C49.4552 19.5604 50.3946 19.2591 51.5119 19.3831C52.0782 19.445 52.5739 19.604 52.9957 19.8049C54.1299 20.3438 55.4606 20.3438 56.5949 19.8049C57.0166 19.604 57.5123 19.445 58.0786 19.3831C59.0296 19.2776 59.8513 19.4801 60.5015 19.7696C61.4358 20.1847 61.8894 21.2442 61.5635 22.2099C61.1282 23.5019 61.2207 24.4376 61.4509 25.1053C61.9483 26.5564 63.1749 27.0117 63.4908 28.5899Z" fill="white"/>
<path d="M70.5776 14.3184C70.1811 14.3267 69.7089 14.3217 69.1763 14.2849C69.6519 14.2916 70.1189 14.3033 70.5776 14.3184Z" fill="white"/>
<path d="M63.0069 31.4168C60.1352 37.9559 59.4983 41.1944 59.5354 42.9384C59.5403 43.2094 59.5773 44.1904 59.4109 45.5108C59.1808 47.3183 58.6952 48.7511 58.3273 49.6649C58.1071 49.824 57.514 50.2105 56.662 50.2389C56.4957 50.244 56.3377 50.2356 56.1898 50.2172C55.2624 50.0983 54.3281 50.0983 53.4007 50.2172C53.2528 50.2356 53.0948 50.244 52.9285 50.2389C52.0765 50.2105 51.4817 49.824 51.2634 49.6649C50.8953 48.7511 50.4097 47.3183 50.1796 45.5108C50.0131 44.1904 50.0502 43.2094 50.0551 42.9384C50.0905 41.1944 49.4552 37.9559 46.5836 31.4168C46.2308 30.7089 45.878 29.6928 46.0999 28.5899C46.4156 27.0117 47.6422 26.5564 48.1396 25.1053C48.38 24.4058 48.4706 23.4167 47.9649 22.0324C47.6709 21.2292 48.0052 20.3304 48.7613 19.9287C49.4552 19.5604 50.3946 19.2591 51.5119 19.3831C52.0782 19.445 52.5739 19.604 52.9957 19.8049C54.1299 20.3438 55.4606 20.3438 56.5949 19.8049C57.0166 19.604 57.5123 19.445 58.0786 19.3831C59.0296 19.2776 59.8513 19.4801 60.5015 19.7696C61.4358 20.1847 61.8894 21.2442 61.5635 22.2099C61.1282 23.5019 61.2207 24.4376 61.4509 25.1053C61.9483 26.5564 63.1749 27.0117 63.4908 28.5899C63.7124 29.6928 63.3596 30.7089 63.0069 31.4168Z" fill="white"/>
<path d="M87.3579 8.7366C83.1741 9.67386 77.1922 10.5442 73.1428 9.72406C71.6977 10.1258 70.3366 11.063 68.69 10.745C63.4474 9.35585 60.2886 4.95408 54.4748 8.25123C49.2491 4.95408 45.6534 9.15501 40.31 10.7283C37.4704 11.2639 35.8069 8.36838 33.74 10.1927C21.8436 9.85796 10.0985 6.2763 0 0C1.7643 8.85375 8.51904 16.3853 17.1053 19.2305C16.45 18.7452 15.8619 18.1426 15.4586 17.4565C19.5417 20.9376 25.1539 21.4231 30.3124 21.2558C30.9173 22.695 32.9167 22.2097 33.8073 23.3981C36.5462 25.9755 32.9672 28.1848 33.1689 30.9295C33.3536 37.3231 38.3104 41.7416 40.4612 47.432L40.058 47.3149C42.5783 54.4614 42.2255 62.0431 43.116 69.4242C46.5775 79.7173 54.3403 73.1397 54.4411 66.3947H54.542C54.6764 73.2902 62.5233 79.6838 65.9007 69.2903C66.7409 61.9595 66.4384 54.4279 68.942 47.3315L68.5388 47.4488C70.7063 41.775 75.6464 37.3397 75.8311 30.9463C76.0328 28.2014 72.4706 25.9755 75.1927 23.4147C76.1 22.2264 78.066 22.7119 78.6876 21.2724C83.8461 21.4733 89.4583 20.9545 93.5414 17.4732C93.1381 18.1761 92.5501 18.7787 91.8946 19.2474C100.515 16.402 107.202 8.90396 109 0.0334735C102.329 4.13398 95.0033 7.07965 87.3579 8.7366ZM76.6512 18.8055C75.2447 19.331 74.1391 19.3928 72.7966 20.3553C71.575 21.2322 70.8643 22.3469 70.4527 23.1554C70.1955 23.5636 69.9787 23.9519 69.7991 24.3068C68.9454 26.1362 69.0815 27.2978 69.3603 28.0174C69.6579 28.789 70.1266 29.0684 70.4325 29.9755C70.5097 30.2031 70.5619 30.4275 70.5955 30.6484C70.3484 31.4233 70.0209 32.2634 69.5789 33.1371C68.1221 36.0242 66.1192 37.9171 64.696 39.0285C65.0354 38.9263 65.3849 38.8127 65.7444 38.6887C66.0418 38.585 66.3292 38.4795 66.6048 38.3724C66.4686 38.5163 66.2671 38.739 66.0469 39.0251C65.3513 39.934 65.0252 40.759 64.7867 41.3784C64.3196 42.585 63.8004 43.9725 63.2525 45.5408C64.1247 44.2454 64.8792 43.236 65.4067 42.5549C65.6471 42.2453 65.8571 41.9808 66.052 41.7331C65.9445 41.9055 65.8286 42.0946 65.7041 42.3056C64.7614 43.8972 64.1314 45.2712 63.7483 46.1751C61.2447 53.0706 61.2698 55.8139 61.8177 57.0156C61.9336 57.2698 62.441 58.2623 62.409 59.5947C62.3956 60.1754 62.2813 60.6858 62.1453 61.1044C62.0848 61.8106 62.1017 62.6741 62.3235 63.6232C62.4461 64.1404 62.6074 64.5955 62.7771 64.9822C62.8207 65.2082 62.8476 65.4575 62.8392 65.7302C62.8056 67.0508 62.0125 67.9965 61.6529 68.3747C61.9923 67.0944 61.7823 65.9144 61.0598 65.3957C60.9203 65.2969 60.7288 65.1964 60.465 65.1429C59.9289 65.0775 59.272 64.9219 58.61 64.5486C58.1513 64.2893 57.9613 64.0801 57.5967 63.8709C57.3329 63.8959 57.0793 63.9061 56.8373 63.9044C56.1434 63.8959 55.6073 63.3136 55.6191 62.6224C55.6191 62.6173 55.6191 62.6122 55.6191 62.6072C55.6274 61.9561 55.493 61.5428 55.3569 60.8532C55.2663 60.403 55.1569 59.7402 55.1015 58.9101C54.9353 59.7168 54.7336 60.3478 54.579 60.7745C54.3387 61.4389 54.1774 61.7169 54.0649 62.2541C54.0279 62.4315 54.0026 62.6023 53.9875 62.7662C53.9303 63.3755 53.4498 63.8659 52.8348 63.8959C52.5106 63.9109 52.1594 63.9061 51.7897 63.8675C51.4235 64.0783 51.2353 64.2877 50.7731 64.5486C50.1111 64.9219 49.4542 65.0775 48.9181 65.1429C48.6543 65.1964 48.4627 65.2969 48.3233 65.3957C47.6008 65.9144 47.3907 67.0944 47.7302 68.3747C47.3705 67.9965 46.5775 67.0508 46.5439 65.7302C46.5356 65.4575 46.5624 65.2082 46.606 64.9822C46.7757 64.5955 46.937 64.1404 47.0597 63.6232C47.2966 62.6106 47.3 61.6968 47.2244 60.9654C47.1303 60.6473 47.0529 60.2808 47.0211 59.8759C46.9588 59.5695 46.9674 59.3419 47.0126 59.1713C47.0798 58.0548 47.4933 57.2414 47.5958 57.0156C48.1435 55.8139 48.1687 53.0706 45.665 46.1751C45.2837 45.2712 44.6519 43.8972 43.7108 42.3056C43.6521 42.2068 43.5967 42.1131 43.5411 42.0244C43.6707 42.1883 43.8084 42.3624 43.9562 42.5549C44.4838 43.236 45.2383 44.2454 46.1103 45.5408C45.5625 43.9725 45.0433 42.585 44.5779 41.3784C44.3376 40.759 44.0117 39.934 43.3161 39.0251C43.0959 38.739 42.896 38.5163 42.7582 38.3724C43.0354 38.4795 43.3211 38.585 43.6185 38.6887C43.9781 38.8127 44.3276 38.9263 44.6669 39.0285C43.2438 37.9171 41.2409 36.0242 39.7841 33.1371C39.3623 32.3036 39.0447 31.5002 38.8027 30.7572C38.8347 30.5028 38.8901 30.24 38.9809 29.9755C39.2867 29.0684 39.7556 28.789 40.053 28.0174C40.3318 27.2978 40.4679 26.1362 39.6144 24.3068C39.4346 23.9519 39.2178 23.5636 38.9608 23.1554C38.5508 22.3469 37.8383 21.2322 36.6184 20.3553C35.2742 19.3928 34.1686 19.331 32.7639 18.8055C31.4801 18.325 29.7359 17.3811 27.9296 15.3175C32.1574 16.4556 34.0056 16.1794 34.9029 15.679C35.0893 15.5736 35.79 15.1501 36.8351 14.792C37.6686 14.5074 38.3827 14.3802 38.8363 14.3183C39.2934 14.3032 39.7588 14.2915 40.2344 14.2848C41.634 14.2664 43.111 14.2865 44.6586 14.3635C47.0395 14.479 49.2475 14.7083 51.2622 14.9978C50.1195 14.4974 48.7181 13.9986 47.0833 13.6505C46.2431 13.4714 45.4517 13.356 44.7223 13.284C45.9204 12.8187 46.8733 12.2747 47.5654 11.8212C47.9771 11.4915 49.0122 10.7551 50.5228 10.6178C52.6466 10.4237 54.1572 11.5517 54.4984 11.8212H54.9133C55.2545 11.5517 56.765 10.4237 58.8889 10.6178C60.3994 10.7551 61.4346 11.4915 61.8462 11.8212C62.5402 12.2747 63.4945 12.8204 64.6942 13.2857C63.9701 13.3576 63.1853 13.4731 62.352 13.6505C60.717 13.9986 59.3156 14.4974 58.1731 14.9978C60.1878 14.7083 62.3974 14.479 64.7783 14.3635C66.3141 14.2882 67.7826 14.2664 69.1739 14.2848C69.6494 14.2915 70.1166 14.3032 70.5753 14.3183C71.0289 14.3802 71.7431 14.5074 72.5766 14.792C73.6217 15.1501 74.3224 15.5736 74.5088 15.679C75.406 16.1794 77.2545 16.4556 81.482 15.3175C79.6757 17.3811 77.9348 18.325 76.6512 18.8055Z" fill="white"/>
<path d="M63.0069 31.4168C60.1352 37.9559 59.4983 41.1944 59.5354 42.9384C59.5403 43.2094 59.5773 44.1904 59.4109 45.5108C59.1808 47.3183 58.6952 48.7511 58.3273 49.6649C58.1071 49.824 57.514 50.2105 56.662 50.2389C56.4957 50.244 56.3377 50.2356 56.1898 50.2172C55.2624 50.0983 54.3281 50.0983 53.4007 50.2172C53.2528 50.2356 53.0948 50.244 52.9285 50.2389C52.0765 50.2105 51.4817 49.824 51.2634 49.6649C50.8953 48.7511 50.4097 47.3183 50.1796 45.5108C50.0131 44.1904 50.0502 43.2094 50.0551 42.9384C50.0905 41.1944 49.4552 37.9559 46.5836 31.4168C46.2308 30.7089 45.878 29.6928 46.0999 28.5899C46.4156 27.0117 47.6422 26.5564 48.1396 25.1053C48.38 24.4058 48.4706 23.4167 47.9649 22.0324C47.6709 21.2292 48.0052 20.3304 48.7613 19.9287C49.4552 19.5604 50.3946 19.2591 51.5119 19.3831C52.0782 19.445 52.5739 19.604 52.9957 19.8049C54.1299 20.3438 55.4606 20.3438 56.5949 19.8049C57.0166 19.604 57.5123 19.445 58.0786 19.3831C59.0296 19.2776 59.8513 19.4801 60.5015 19.7696C61.4358 20.1847 61.8894 21.2442 61.5635 22.2099C61.1282 23.5019 61.2207 24.4376 61.4509 25.1053C61.9483 26.5564 63.1749 27.0117 63.4908 28.5899C63.7124 29.6928 63.3596 30.7089 63.0069 31.4168Z" fill="white"/>
<path d="M94.504 49.836C91.576 49.836 89.312 49.068 87.712 47.532C86.128 45.996 85.336 43.54 85.336 40.164C85.336 36.788 86.128 34.332 87.712 32.796C89.312 31.26 91.576 30.492 94.504 30.492C97.432 30.492 99.688 31.26 101.272 32.796C102.872 34.332 103.672 36.788 103.672 40.164C103.672 43.54 102.872 45.996 101.272 47.532C99.688 49.068 97.432 49.836 94.504 49.836ZM94.504 45.564C95.048 45.564 95.456 45.42 95.728 45.132C96 44.844 96.136 44.396 96.136 43.788V36.54C96.136 35.932 96 35.484 95.728 35.196C95.456 34.908 95.048 34.764 94.504 34.764C93.96 34.764 93.552 34.908 93.28 35.196C93.008 35.484 92.872 35.932 92.872 36.54V43.788C92.872 44.412 93.008 44.868 93.28 45.156C93.552 45.428 93.96 45.564 94.504 45.564ZM113.464 49.836C110.952 49.836 109.008 49.284 107.632 48.18C106.272 47.076 105.592 45.284 105.592 42.804V34.764H104.392V30.828H113.272V34.764H112.312V44.028C112.312 44.556 112.424 44.948 112.648 45.204C112.888 45.444 113.24 45.564 113.704 45.564C114.168 45.564 114.512 45.444 114.736 45.204C114.976 44.948 115.096 44.556 115.096 44.028V34.764H114.136V30.828H122.368V34.764H121.168V42.804C121.168 45.284 120.504 47.076 119.176 48.18C117.848 49.284 115.944 49.836 113.464 49.836ZM141.142 36.636H137.014V34.764H135.478V45.564H137.158V49.5H127.078V45.564H128.758V34.764H127.222V36.636H123.094V30.828H141.142V36.636ZM141.964 49.5V45.564H143.164V34.764H141.964V30.828H152.092V34.764H149.884V45.564H152.044V43.356H156.82V49.5H141.964ZM175.26 45.564H176.22V49.5H166.812V45.564H168.252L167.868 43.644H164.604L164.22 45.564H165.66V49.5H157.452V45.564H158.412L162.468 30.828H171.204L175.26 45.564ZM165.132 41.1H167.34L166.356 36.324H166.116L165.132 41.1ZM194.852 30.828H202.532V34.764H201.572L197.996 49.5H190.82L188.636 39.132H188.396L186.092 49.5H178.916L175.1 34.764H174.14V30.828H183.02V34.764H182.108L183.044 40.884H183.284L185.564 30.828H192.476L194.588 40.884H194.828L195.764 34.764H194.852V30.828Z" fill="white"/>
</svg>
